<svg width="4096" height="4096" version="1.1" xmlns="http://www.w3.org/2000/svg" desc="Created with imagetracer.js version 1.2.6" ><path fill="rgb(0,0,0)" stroke="rgb(0,0,0)" stroke-width="1" opacity="0" d="M 0 0 L 4096 0 L 4096 4096 L 0 4096 L 0 0 Z M 2047 1120 L 2046 1121 L 2028 1121 L 2015 1124 L 1971 1125 L 1957 1128 L 1936 1129 L 1922 1132 L 1907 1133 L 1852 1144 L 1774 1165 L 1704 1192 L 1618 1233 L 1589 1250 L 1583 1255 L 1560 1267 L 1513 1300 L 1503 1305 L 1490 1317 Q 1487 1316 1488 1319 L 1479 1327 L 1459 1340 L 1437 1361 L 1431 1360 L 1422 1356 L 1396 1356 L 1391 1357 L 1364 1368 L 1354 1376 Q 1342 1386 1334 1400 L 1328 1415 Q 1328 1424 1324 1431 L 1324 1454 L 1329 1467 L 1328 1474 Q 1326 1477 1322 1477 L 1315 1484 L 1299 1511 L 1272 1547 L 1248 1585 L 1217 1646 Q 1210 1666 1200 1683 L 1200 1686 L 1197 1689 L 1192 1699 L 1183 1728 L 1178 1732 L 1163 1740 L 1153 1748 Q 1135 1766 1128 1795 L 1128 1830 L 1129 1834 L 1137 1854 L 1148 1870 Q 1157 1881 1172 1888 L 1183 1892 L 1203 1896 L 1224 1896 L 1233 1894 L 1252 1886 L 1266 1876 L 1275 1867 L 1285 1852 L 1291 1838 L 1296 1821 L 1296 1811 L 1293 1804 L 1291 1788 L 1287 1776 L 1271 1753 Q 1270 1747 1272 1745 L 1276 1744 L 1279 1740 L 1279 1735 L 1284 1722 L 1284 1719 L 1292 1700 L 1300 1687 L 1320 1647 L 1358 1588 L 1398 1536 L 1407 1529 L 1421 1527 Q 1425 1523 1434 1523 L 1439 1520 L 1445 1519 L 1466 1507 Q 1478 1495 1486 1480 L 1491 1468 Q 1491 1458 1495 1453 L 1496 1441 L 1511 1422 L 1515 1419 L 1516 1416 L 1571 1373 L 1639 1328 L 1699 1296 L 1704 1295 L 1728 1284 L 1744 1279 L 1777 1265 L 1815 1252 L 1822 1251 L 1828 1248 L 1836 1247 L 1858 1240 L 1867 1239 L 1903 1228 L 1913 1227 L 1922 1224 L 1935 1224 L 1936 1223 L 1955 1222 L 1959 1220 L 1981 1220 L 1982 1219 L 2003 1218 L 2006 1216 L 2034 1216 L 2035 1215 L 2127 1215 L 2128 1216 L 2150 1216 L 2159 1218 L 2167 1218 L 2168 1219 L 2190 1220 L 2202 1223 L 2221 1225 L 2226 1227 L 2240 1229 L 2244 1231 L 2253 1232 L 2291 1244 L 2295 1244 L 2306 1248 L 2315 1249 L 2341 1257 L 2346 1260 L 2349 1260 L 2384 1275 L 2389 1276 L 2415 1288 L 2431 1293 L 2455 1308 L 2483 1321 Q 2526 1346 2565 1376 L 2575 1381 Q 2585 1392 2599 1400 L 2620 1420 L 2624 1426 L 2636 1433 L 2640 1439 L 2640 1450 L 2649 1477 L 2658 1492 L 2676 1509 L 2684 1514 L 2706 1524 L 2717 1524 L 2732 1529 Q 2740 1535 2744 1546 L 2760 1563 L 2765 1574 L 2780 1591 L 2796 1618 L 2804 1627 L 2810 1643 L 2820 1655 L 2821 1659 L 2832 1678 L 2847 1713 L 2851 1727 L 2854 1731 L 2854 1735 L 2861 1749 L 2861 1756 L 2850 1777 L 2844 1799 L 2844 1826 L 2845 1831 L 2848 1836 L 2849 1842 L 2853 1851 L 2860 1862 L 2881 1882 L 2888 1886 L 2902 1892 L 2907 1892 L 2922 1896 L 2941 1896 L 2958 1891 L 2975 1882 L 2982 1876 Q 3004 1858 3012 1825 L 3012 1805 L 3008 1790 L 2992 1759 Q 2978 1741 2957 1731 L 2952 1727 L 2951 1720 L 2949 1717 L 2943 1696 L 2932 1673 L 2931 1668 L 2895 1595 L 2864 1546 L 2861 1539 L 2832 1499 L 2821 1488 L 2817 1480 L 2807 1474 L 2807 1469 L 2812 1459 L 2812 1434 L 2809 1421 L 2799 1399 L 2791 1387 L 2784 1379 L 2762 1364 L 2753 1360 L 2749 1360 L 2736 1356 L 2715 1356 L 2704 1361 Q 2694 1361 2692 1354 Q 2689 1355 2690 1353 L 2680 1342 Q 2656 1327 2636 1308 Q 2614 1296 2597 1281 L 2587 1276 L 2573 1265 L 2555 1256 L 2528 1238 L 2444 1196 L 2418 1187 L 2374 1169 L 2276 1141 L 2251 1136 L 2237 1135 L 2223 1132 L 2215 1132 L 2201 1129 L 2180 1128 L 2164 1125 L 2155 1125 L 2154 1124 L 2141 1124 L 2132 1122 L 2124 1122 L 2123 1121 L 2104 1121 L 2103 1120 L 2047 1120 Z M 2022 1384 L 2021 1385 L 2007 1385 L 1994 1388 L 1966 1389 L 1960 1391 L 1934 1393 L 1929 1395 L 1913 1397 L 1909 1399 L 1895 1401 L 1887 1404 L 1877 1405 L 1873 1407 L 1864 1408 Q 1856 1412 1846 1413 L 1843 1415 L 1822 1420 L 1772 1437 L 1734 1453 L 1660 1491 L 1607 1527 L 1602 1529 L 1546 1573 Q 1543 1572 1544 1575 L 1542 1576 L 1527 1591 L 1527 1592 L 1523 1595 Q 1524 1597 1522 1596 L 1520 1599 L 1518 1600 L 1516 1603 L 1514 1604 L 1512 1607 L 1510 1608 L 1508 1611 L 1506 1612 L 1504 1615 L 1502 1616 L 1500 1619 L 1495 1623 Q 1496 1625 1494 1624 L 1491 1628 L 1487 1631 Q 1488 1633 1486 1632 L 1483 1636 L 1480 1637 L 1460 1663 L 1458 1664 L 1456 1667 L 1452 1669 L 1426 1701 L 1420 1714 Q 1418 1726 1421 1734 L 1430 1751 L 1435 1755 L 1452 1764 Q 1462 1765 1469 1762 L 1479 1758 L 1491 1750 L 1508 1729 L 1511 1727 L 1514 1723 Q 1516 1724 1515 1722 L 1519 1719 L 1522 1715 Q 1524 1716 1523 1714 L 1527 1711 L 1528 1708 L 1532 1706 Q 1531 1703 1534 1704 L 1536 1701 L 1539 1699 L 1540 1697 L 1543 1695 L 1546 1691 Q 1548 1692 1547 1690 L 1551 1687 L 1554 1683 Q 1556 1684 1555 1682 L 1587 1655 L 1588 1652 L 1590 1652 L 1599 1643 Q 1601 1644 1600 1641 L 1605 1639 Q 1631 1615 1662 1595 L 1717 1561 L 1767 1536 L 1825 1513 L 1876 1497 Q 1887 1496 1896 1492 L 1905 1491 L 1913 1488 L 1924 1487 L 1933 1484 L 1940 1484 L 1958 1480 L 1968 1480 L 1969 1479 L 1983 1478 L 1988 1476 L 2001 1476 L 2002 1475 L 2013 1475 L 2014 1474 L 2030 1474 L 2034 1472 L 2064 1472 L 2065 1471 L 2110 1472 L 2125 1475 L 2154 1476 L 2168 1479 L 2187 1480 L 2198 1483 L 2211 1484 L 2278 1501 L 2314 1512 L 2322 1516 L 2325 1516 L 2374 1536 L 2406 1552 L 2463 1585 L 2482 1600 L 2502 1612 Q 2515 1626 2532 1637 L 2547 1652 L 2560 1661 L 2608 1710 L 2616 1722 L 2648 1753 Q 2656 1760 2669 1764 L 2683 1764 L 2702 1755 Q 2708 1750 2711 1742 L 2711 1739 L 2716 1726 Q 2714 1707 2704 1697 L 2678 1669 L 2668 1655 L 2598 1584 L 2587 1577 L 2569 1559 L 2534 1532 L 2495 1505 L 2436 1470 L 2372 1440 L 2355 1433 L 2346 1431 L 2333 1425 L 2310 1419 L 2307 1417 L 2300 1416 L 2290 1412 L 2251 1403 L 2247 1401 L 2237 1400 L 2221 1396 L 2215 1396 L 2205 1393 L 2183 1391 L 2177 1389 L 2154 1388 L 2137 1385 L 2120 1385 L 2119 1384 L 2022 1384 Z M 2025 1584 L 2024 1585 L 2011 1585 L 1997 1588 L 1983 1589 L 1948 1596 L 1940 1598 L 1938 1600 L 1925 1601 L 1922 1603 L 1918 1603 Q 1908 1608 1896 1609 L 1893 1611 L 1886 1612 L 1853 1624 L 1850 1624 L 1823 1635 L 1757 1668 L 1732 1683 L 1708 1699 L 1660 1737 L 1650 1742 L 1623 1751 L 1580 1775 L 1556 1791 L 1530 1813 Q 1527 1812 1528 1815 L 1526 1816 L 1503 1840 L 1499 1847 L 1487 1860 L 1463 1896 L 1400 2016 L 1400 2021 L 1411 2042 L 1420 2055 L 1430 2075 L 1444 2095 L 1445 2099 L 1455 2114 L 1459 2116 L 1463 2110 L 1540 1955 L 1560 1923 L 1584 1893 L 1598 1879 L 1635 1852 L 1666 1836 L 1700 1824 L 1708 1823 L 1729 1816 L 1755 1811 L 1763 1808 L 1773 1807 L 1781 1804 L 1792 1803 L 1801 1800 L 1813 1799 L 1817 1797 L 1835 1795 L 1846 1792 L 1862 1791 L 1873 1788 L 1893 1787 L 1904 1784 L 1937 1783 L 1947 1780 L 1977 1780 L 1978 1779 L 1996 1779 L 1997 1778 L 2000 1779 L 2007 1776 L 2037 1776 L 2038 1775 L 2114 1775 L 2115 1776 L 2138 1776 L 2154 1779 L 2190 1780 L 2205 1783 L 2226 1784 L 2246 1788 L 2255 1788 L 2267 1791 L 2289 1793 L 2294 1795 L 2307 1796 L 2318 1799 L 2335 1801 L 2339 1803 L 2349 1804 L 2358 1807 L 2372 1809 L 2380 1812 L 2385 1812 L 2392 1815 L 2401 1816 L 2407 1819 L 2416 1820 L 2448 1830 L 2451 1832 L 2454 1832 L 2462 1836 L 2465 1836 L 2507 1857 L 2539 1880 L 2565 1907 L 2588 1939 Q 2596 1959 2608 1975 L 2641 2041 L 2650 2063 L 2656 2071 L 2678 2115 L 2681 2116 Q 2692 2101 2700 2083 L 2718 2056 L 2729 2033 L 2736 2024 L 2736 2017 L 2698 1941 L 2684 1918 L 2674 1897 L 2659 1874 L 2634 1841 L 2602 1808 Q 2590 1802 2582 1792 L 2531 1761 L 2518 1756 L 2514 1753 L 2508 1752 L 2484 1742 L 2471 1730 L 2451 1717 L 2426 1696 L 2395 1679 L 2387 1673 L 2383 1672 L 2368 1662 L 2301 1629 L 2253 1612 L 2249 1612 L 2238 1608 L 2230 1607 L 2210 1600 L 2203 1600 L 2201 1600 L 2200 1598 L 2161 1588 L 2140 1586 L 2139 1585 L 2128 1585 L 2127 1584 L 2025 1584 Z M 2129 1856 L 2128 1857 L 2088 1857 L 2075 1860 L 2029 1860 L 2018 1864 L 2002 1877 Q 1999 1876 2000 1879 L 1971 1900 L 1941 1928 L 1910 1952 L 1891 1971 Q 1877 1977 1870 1989 Q 1867 1988 1868 1991 L 1836 2015 L 1834 2018 L 1833 2018 L 1812 2037 L 1809 2041 L 1802 2048 L 1799 2049 Q 1793 2051 1792 2058 L 1783 2066 Q 1780 2065 1781 2068 L 1805 2068 L 1806 2067 L 1811 2068 L 1826 2067 L 1830 2064 L 1891 2063 Q 1892 2058 1900 2060 L 1902 2063 L 1906 2063 L 1910 2060 L 1923 2060 L 1927 2058 L 1971 2019 L 1972 2016 L 1987 2005 L 1990 2000 Q 1995 2001 1998 1997 L 2000 1993 L 2018 1980 L 2103 1907 L 2152 1869 L 2161 1859 L 2158 1856 L 2129 1856 Z M 1871 1868 L 1859 1871 L 1843 1872 L 1824 1876 L 1818 1876 L 1802 1880 L 1794 1880 L 1775 1884 L 1762 1885 L 1751 1888 L 1735 1889 L 1719 1903 L 1711 1908 L 1699 1920 L 1690 1926 L 1680 1939 L 1676 1941 L 1670 1949 Q 1667 1948 1668 1951 L 1652 1961 L 1638 1978 L 1625 1986 L 1622 1989 L 1621 1996 L 1619 1999 L 1617 2002 L 1606 2011 L 1572 2051 L 1552 2079 L 1559 2080 L 1578 2080 L 1579 2079 L 1587 2079 L 1591 2076 L 1615 2075 L 1617 2075 L 1623 2072 L 1662 2072 L 1667 2070 L 1677 2063 Q 1705 2034 1738 2008 L 1740 2004 L 1744 2002 Q 1743 1999 1746 2000 L 1748 1996 L 1893 1875 L 1897 1870 L 1896 1868 L 1871 1868 Z M 1146 2004 Q 1144 2007 1139 2005 L 1124 2012 L 1116 2020 L 1110 2029 L 1104 2043 Q 1104 2052 1100 2059 L 1100 2084 L 1104 2097 L 1105 2110 L 1117 2139 L 1136 2166 L 1155 2184 L 1181 2202 L 1214 2219 L 1240 2228 L 1248 2229 L 1258 2234 L 1261 2239 L 1261 2354 L 1264 2359 L 1265 2385 L 1268 2391 L 1268 2433 L 1269 2434 L 1269 2454 L 1272 2458 L 1273 2506 L 1276 2511 L 1277 2537 L 1280 2545 L 1281 2558 L 1284 2565 L 1285 2581 Q 1289 2587 1289 2598 L 1292 2605 L 1293 2614 L 1296 2621 L 1297 2629 L 1299 2632 L 1301 2642 L 1303 2645 L 1317 2689 L 1341 2742 L 1360 2768 L 1382 2786 L 1394 2791 L 1403 2792 L 1417 2796 L 1433 2796 L 1438 2795 L 1476 2778 L 1517 2748 L 1531 2735 Q 1556 2717 1579 2696 L 1587 2691 Q 1590 2692 1588 2688 L 1446 2688 L 1445 2689 L 1440 2688 L 1437 2689 Q 1425 2691 1418 2688 L 1413 2680 L 1392 2621 L 1387 2597 L 1385 2594 L 1383 2583 L 1380 2577 Q 1380 2567 1376 2561 L 1375 2549 L 1372 2541 L 1371 2528 Q 1385 2534 1396 2544 L 1408 2549 Q 1430 2565 1458 2576 L 1495 2588 L 1500 2588 L 1513 2592 L 1519 2592 L 1531 2595 L 1540 2595 L 1541 2596 L 1560 2596 L 1561 2595 L 1569 2595 L 1578 2592 L 1591 2591 L 1613 2583 L 1640 2567 L 1666 2539 L 1676 2518 L 1676 2492 L 1673 2476 L 1668 2459 L 1656 2433 L 1652 2421 L 1631 2379 L 1612 2347 L 1595 2322 L 1565 2284 L 1536 2254 Q 1521 2245 1510 2233 L 1487 2217 L 1482 2212 L 1463 2201 L 1459 2200 L 1454 2196 L 1413 2177 L 1387 2168 L 1380 2167 L 1373 2164 L 1369 2164 L 1362 2161 L 1353 2160 Q 1344 2156 1333 2155 L 1325 2152 L 1317 2151 L 1309 2148 L 1305 2148 L 1279 2139 L 1276 2139 L 1271 2136 L 1265 2135 L 1241 2124 L 1221 2111 L 1208 2099 L 1206 2095 L 1208 2092 L 1342 2092 L 1352 2095 L 1351 2088 L 1349 2085 L 1349 2082 L 1335 2040 Q 1330 2028 1322 2020 L 1311 2009 L 1302 2005 Q 1295 2007 1294 2004 L 1146 2004 Z M 2840 2004 Q 2828 2006 2821 2013 Q 2810 2022 2804 2036 L 2800 2046 L 2800 2050 L 2797 2053 L 2788 2078 L 2788 2081 L 2784 2088 L 2784 2091 L 2800 2091 L 2801 2092 L 2933 2092 L 2931 2100 L 2918 2112 L 2879 2135 L 2839 2147 L 2760 2165 L 2741 2172 L 2738 2172 L 2706 2185 L 2667 2205 L 2628 2231 L 2622 2237 Q 2619 2236 2620 2239 L 2618 2240 L 2616 2243 L 2614 2244 L 2612 2247 L 2610 2248 L 2608 2251 Q 2602 2258 2593 2262 L 2579 2276 Q 2574 2285 2567 2292 L 2564 2293 L 2543 2320 L 2519 2356 L 2500 2390 L 2488 2414 L 2487 2419 L 2481 2430 L 2468 2462 L 2460 2492 L 2460 2518 Q 2464 2532 2472 2542 Q 2480 2553 2493 2560 L 2496 2565 Q 2507 2576 2524 2583 L 2535 2585 L 2538 2587 L 2545 2588 L 2556 2592 L 2571 2595 L 2579 2595 L 2580 2596 L 2607 2596 Q 2608 2593 2615 2595 L 2662 2583 L 2689 2572 L 2731 2550 L 2755 2535 L 2761 2529 L 2764 2528 L 2765 2531 L 2760 2547 L 2760 2563 L 2757 2571 L 2756 2580 L 2752 2590 L 2744 2621 L 2732 2654 L 2732 2657 L 2729 2662 L 2720 2687 L 2719 2688 L 2552 2689 L 2561 2694 L 2594 2727 L 2629 2754 L 2658 2772 L 2665 2778 L 2684 2788 L 2691 2791 L 2713 2796 L 2730 2796 L 2742 2792 L 2746 2792 Q 2758 2788 2766 2780 Q 2780 2768 2790 2752 L 2811 2710 L 2835 2641 L 2837 2631 L 2839 2628 L 2839 2624 L 2843 2612 L 2844 2604 L 2847 2597 L 2847 2592 L 2851 2579 L 2852 2568 L 2855 2559 L 2856 2540 L 2859 2532 L 2860 2512 L 2863 2504 L 2863 2490 L 2864 2489 L 2864 2450 L 2867 2444 L 2867 2425 L 2868 2424 L 2868 2416 L 2867 2415 L 2868 2410 L 2868 2395 L 2870 2391 L 2872 2372 L 2875 2363 L 2875 2345 L 2876 2344 L 2876 2317 L 2875 2316 L 2875 2239 L 2882 2234 L 2908 2226 L 2911 2224 L 2918 2223 L 2940 2213 L 2976 2191 L 2994 2176 Q 3010 2158 3023 2136 Q 3024 2129 3027 2126 L 3028 2119 L 3031 2114 L 3036 2095 L 3036 2057 L 3035 2056 L 3035 2048 L 3030 2033 L 3024 2023 L 3010 2009 L 3002 2005 Q 2996 2007 2995 2004 L 2840 2004 Z M 1996 2140 L 1995 2141 L 1978 2141 L 1967 2144 L 1945 2144 L 1944 2145 L 1922 2145 L 1921 2144 L 1883 2144 L 1882 2145 L 1866 2145 L 1852 2148 L 1813 2148 L 1812 2149 L 1790 2149 L 1779 2152 L 1727 2153 L 1714 2156 L 1674 2157 L 1662 2160 L 1622 2161 L 1612 2164 L 1579 2164 L 1563 2168 L 1557 2168 L 1551 2171 L 1552 2173 Q 1566 2181 1577 2194 L 1586 2200 L 1597 2213 L 1606 2219 L 1645 2259 L 1648 2263 L 1649 2270 L 1652 2273 Q 1651 2275 1654 2274 L 1654 2276 L 1665 2287 L 1672 2298 L 1685 2311 L 1705 2342 L 1728 2371 L 1733 2382 L 1768 2435 L 1778 2457 L 1796 2479 L 1817 2514 L 1824 2523 L 1830 2535 L 1841 2551 L 1847 2557 L 1849 2562 L 1856 2564 L 1988 2563 L 1989 2562 L 2015 2562 L 2018 2560 L 2046 2560 L 2047 2559 L 2139 2559 L 2140 2560 L 2162 2560 L 2171 2562 L 2185 2562 L 2186 2563 L 2235 2563 L 2236 2564 L 2240 2563 L 2262 2563 L 2263 2564 L 2282 2564 L 2287 2563 L 2300 2546 L 2348 2467 L 2360 2450 L 2368 2435 L 2425 2349 L 2455 2307 L 2498 2253 L 2539 2215 L 2540 2213 L 2543 2211 L 2544 2208 L 2571 2186 Q 2573 2187 2572 2184 L 2585 2175 L 2589 2169 L 2585 2168 L 2563 2168 L 2557 2165 L 2546 2165 L 2545 2164 L 2521 2164 L 2513 2161 L 2480 2160 L 2465 2157 L 2423 2156 L 2410 2153 L 2392 2153 L 2391 2152 L 2367 2152 L 2356 2149 L 2304 2148 L 2303 2147 L 2295 2147 L 2290 2145 L 2268 2145 L 2267 2144 L 2199 2144 L 2192 2141 Q 2180 2140 2175 2144 L 2159 2144 L 2151 2141 L 2129 2141 L 2128 2140 L 1996 2140 Z M 2017 2656 L 2016 2657 L 1990 2657 L 1975 2660 L 1958 2660 L 1957 2661 L 1915 2661 L 1914 2660 L 1859 2660 L 1858 2661 L 1838 2662 L 1831 2664 L 1776 2665 L 1762 2668 L 1749 2668 L 1748 2669 L 1738 2669 L 1737 2670 L 1723 2671 L 1722 2672 L 1707 2672 L 1706 2673 L 1689 2674 L 1682 2676 L 1671 2676 L 1651 2680 L 1633 2682 L 1613 2687 Q 1608 2686 1610 2690 L 1604 2690 L 1602 2692 L 1602 2700 L 1607 2704 Q 1606 2708 1610 2706 L 1610 2715 L 1622 2726 Q 1628 2724 1626 2729 Q 1630 2728 1631 2732 Q 1630 2734 1633 2733 L 1635 2737 L 1640 2741 L 1642 2744 L 1648 2747 L 1653 2746 L 1654 2749 L 1669 2752 L 1694 2752 L 1695 2751 L 1703 2751 L 1707 2748 L 1768 2747 L 1774 2744 L 1821 2744 L 1822 2743 L 2349 2743 L 2350 2744 L 2390 2744 L 2403 2747 L 2419 2747 L 2420 2748 L 2445 2748 L 2453 2751 L 2490 2751 L 2492 2750 L 2497 2740 L 2502 2736 Q 2501 2732 2507 2734 L 2518 2723 L 2518 2719 L 2521 2717 L 2524 2713 Q 2523 2710 2526 2711 L 2524 2709 Q 2523 2704 2526 2703 Q 2524 2697 2528 2698 Q 2532 2695 2532 2689 L 2527 2690 L 2523 2689 Q 2517 2691 2518 2687 L 2491 2681 L 2486 2681 L 2475 2678 L 2446 2674 L 2445 2673 L 2420 2671 L 2413 2669 L 2401 2669 L 2400 2668 L 2380 2668 L 2366 2665 L 2308 2664 L 2307 2663 L 2291 2662 L 2290 2661 L 2269 2661 L 2268 2660 L 2196 2660 L 2186 2658 L 2176 2658 L 2175 2657 L 2119 2657 L 2118 2656 Q 2113 2655 2112 2657 L 2107 2656 L 2086 2656 L 2085 2657 L 2082 2656 L 2051 2656 L 2050 2657 L 2018 2657 L 2017 2656 Z M 2528 2712 L 2530 2715 Q 2532 2716 2531 2714 L 2528 2712 Z M 1678 2755 L 1669 2760 L 1654 2764 L 1631 2775 L 1604 2785 L 1587 2795 L 1584 2799 L 1592 2801 L 1614 2815 L 1618 2816 L 1652 2836 L 1694 2856 L 1775 2888 L 1841 2908 L 1845 2908 L 1858 2912 L 1863 2912 L 1876 2916 L 1881 2916 L 1894 2920 Q 1905 2920 1914 2924 L 1920 2924 L 1929 2927 L 1943 2928 L 1954 2931 L 1970 2932 L 1985 2935 L 2021 2936 L 2030 2938 L 2039 2938 L 2040 2939 L 2106 2939 L 2108 2939 L 2115 2936 L 2161 2935 L 2174 2932 L 2191 2931 L 2202 2928 L 2211 2928 L 2230 2924 L 2243 2923 L 2272 2916 L 2277 2916 L 2290 2912 L 2299 2911 L 2319 2904 L 2350 2896 L 2416 2872 L 2446 2859 L 2517 2823 L 2546 2804 L 2550 2800 L 2554 2799 L 2555 2796 L 2550 2794 L 2537 2785 L 2525 2781 L 2499 2768 L 2465 2755 L 2459 2756 L 2454 2760 L 2399 2787 L 2371 2797 L 2366 2800 L 2362 2800 L 2348 2805 L 2324 2815 L 2314 2817 L 2308 2820 L 2304 2820 L 2294 2824 L 2290 2824 L 2283 2827 Q 2270 2828 2261 2832 L 2256 2832 L 2248 2835 L 2238 2836 L 2229 2839 L 2213 2841 L 2202 2844 L 2187 2845 L 2175 2848 L 2154 2849 L 2140 2852 L 2119 2852 L 2118 2853 L 2009 2852 L 1996 2849 L 1971 2848 L 1958 2845 L 1943 2844 L 1932 2841 L 1917 2839 L 1913 2837 L 1899 2835 L 1895 2833 L 1886 2832 L 1857 2824 L 1853 2824 L 1819 2812 L 1813 2811 L 1732 2780 L 1682 2755 L 1678 2755 Z " /><path fill="rgb(0,0,0)" stroke="rgb(0,0,0)" stroke-width="1" opacity="0" d="M 2769.5 2260 Q 2777.3 2258.2 2779 2262.5 L 2780 2265.5 L 2780 2281.5 L 2781 2282.5 L 2781 2321.5 L 2780 2322.5 L 2780 2345.5 L 2777 2351.5 L 2776 2363.5 L 2771 2382.5 L 2759 2406.5 L 2737.5 2429 L 2734.5 2431 L 2729.5 2436 L 2697.5 2455 L 2659.5 2468 L 2655.5 2468 L 2642.5 2472 L 2632.5 2473 L 2628.5 2475 L 2605.5 2477 L 2595.5 2480 L 2576.5 2480 Q 2575.3 2482.3 2570.5 2481 L 2567 2480 L 2567 2476.5 L 2575 2461.5 L 2584 2438.5 L 2599 2407.5 L 2619 2375.5 L 2640 2348 L 2643 2346.5 L 2665.5 2323 L 2668 2321.5 Q 2667.3 2319.3 2669.5 2320 Q 2691.1 2300.6 2716.5 2285 L 2751.5 2267 L 2769.5 2260 Z " /><path fill="rgb(0,0,0)" stroke="rgb(0,0,0)" stroke-width="1" opacity="0" d="M 1357 2261 L 1363.5 2261 L 1371.5 2264 L 1379.5 2265 L 1418.5 2285 L 1453.5 2308 Q 1466 2322 1482.5 2332 L 1493 2342.5 Q 1500.5 2356.5 1512 2366.5 L 1536 2402.5 L 1559 2448.5 L 1564 2461.5 L 1572 2473.5 L 1573 2480 L 1559.5 2480 L 1552.5 2477 L 1522.5 2476 L 1512.5 2473 L 1494.5 2471 L 1490.5 2469 L 1481.5 2468 L 1470.5 2464 L 1463.5 2463 L 1436.5 2453 L 1410.5 2440 L 1388 2419.5 Q 1378.2 2409.8 1372 2396.5 L 1365 2379.5 L 1363 2368.5 L 1361 2364.5 L 1360 2352.5 L 1359 2351.5 L 1359 2339.5 L 1356 2332.5 L 1355 2274.5 L 1356 2273.5 Q 1354.8 2264.6 1357 2261 Z " /><path fill="rgb(0,144,218)" stroke="rgb(0,144,218)" stroke-width="1" opacity="0.984313725490196" d="M 2046.5 1120 L 2102.5 1120 L 2103.5 1121 L 2122.5 1121 L 2123.5 1122 L 2131.5 1122 L 2140.5 1124 L 2153.5 1124 L 2154.5 1125 L 2163.5 1125 L 2179.5 1128 L 2200.5 1129 L 2214.5 1132 L 2222.5 1132 L 2236.5 1135 L 2250.5 1136 L 2275.5 1141 L 2373.5 1169 L 2417.5 1187 L 2443.5 1196 L 2527.5 1238 L 2554.5 1256 L 2572.5 1265 L 2586.5 1276 L 2596.5 1281 Q 2614.4 1296.1 2635.5 1308 Q 2655.8 1326.7 2679.5 1342 L 2690 1352.5 Q 2689.3 1354.8 2691.5 1354 Q 2694.1 1360.9 2703.5 1361 L 2714.5 1356 L 2735.5 1356 L 2748.5 1360 L 2752.5 1360 L 2761.5 1364 L 2783.5 1379 L 2791 1386.5 L 2799 1398.5 L 2809 1420.5 L 2812 1433.5 L 2812 1458.5 L 2807 1468.5 L 2807 1473.5 L 2817 1479.5 L 2821 1487.5 L 2832 1498.5 L 2861 1538.5 L 2864 1545.5 L 2895 1594.5 L 2931 1667.5 L 2932 1672.5 L 2943 1695.5 L 2949 1716.5 L 2951 1719.5 L 2952 1726.5 L 2956.5 1731 Q 2978 1741 2992 1758.5 L 3008 1789.5 L 3012 1804.5 L 3012 1824.5 Q 3004.3 1857.8 2981.5 1876 L 2974.5 1882 L 2957.5 1891 L 2940.5 1896 L 2921.5 1896 L 2906.5 1892 L 2901.5 1892 L 2887.5 1886 L 2880.5 1882 L 2860 1861.5 L 2853 1850.5 L 2849 1841.5 L 2848 1835.5 L 2845 1830.5 L 2844 1825.5 L 2844 1798.5 L 2850 1776.5 L 2861 1755.5 L 2861 1748.5 L 2854 1734.5 L 2854 1730.5 L 2851 1726.5 L 2847 1712.5 L 2832 1677.5 L 2821 1658.5 L 2820 1654.5 L 2810 1642.5 L 2804 1626.5 L 2796 1617.5 L 2780 1590.5 L 2765 1573.5 L 2760 1562.5 L 2744 1545.5 Q 2739.6 1535.4 2731.5 1529 L 2716.5 1524 L 2705.5 1524 L 2683.5 1514 L 2675.5 1509 L 2658 1491.5 L 2649 1476.5 L 2640 1449.5 L 2640 1438.5 L 2635.5 1433 L 2624 1426 L 2619.5 1420 L 2598.5 1400 Q 2585.1 1391.9 2574.5 1381 L 2564.5 1376 Q 2525.7 1346.3 2482.5 1321 L 2454.5 1308 L 2430.5 1293 L 2414.5 1288 L 2388.5 1276 L 2383.5 1275 L 2348.5 1260 L 2345.5 1260 L 2340.5 1257 L 2314.5 1249 L 2305.5 1248 L 2294.5 1244 L 2290.5 1244 L 2252.5 1232 L 2243.5 1231 L 2239.5 1229 L 2225.5 1227 L 2220.5 1225 L 2201.5 1223 L 2189.5 1220 L 2167.5 1219 L 2166.5 1218 L 2158.5 1218 L 2149.5 1216 L 2127.5 1216 L 2126.5 1215 L 2034.5 1215 L 2033.5 1216 L 2005.5 1216 L 2002.5 1218 L 1981.5 1219 L 1980.5 1220 L 1958.5 1220 L 1954.5 1222 L 1935.5 1223 L 1934.5 1224 L 1921.5 1224 L 1912.5 1227 L 1902.5 1228 L 1866.5 1239 L 1857.5 1240 L 1835.5 1247 L 1827.5 1248 L 1821.5 1251 L 1814.5 1252 L 1776.5 1265 L 1743.5 1279 L 1727.5 1284 L 1703.5 1295 L 1698.5 1296 L 1638.5 1328 L 1570.5 1373 L 1516 1416 L 1514.5 1419 L 1511 1421.5 L 1496 1440.5 L 1495 1452.5 Q 1491.2 1458.2 1491 1467.5 L 1486 1479.5 Q 1477.6 1495.1 1465.5 1507 L 1444.5 1519 L 1438.5 1520 L 1433.5 1523 Q 1425.2 1523.2 1420.5 1527 L 1406.5 1529 L 1398 1536 L 1358 1587.5 L 1320 1646.5 L 1300 1686.5 L 1292 1699.5 L 1284 1718.5 L 1284 1721.5 L 1279 1734.5 L 1279 1739.5 L 1275.5 1744 L 1272 1745 Q 1270.4 1747.1 1271 1752.5 L 1287 1775.5 L 1291 1787.5 L 1293 1803.5 L 1296 1810.5 L 1296 1820.5 L 1291 1837.5 L 1285 1851.5 L 1275 1866.5 L 1265.5 1876 L 1251.5 1886 L 1232.5 1894 L 1223.5 1896 L 1202.5 1896 L 1182.5 1892 L 1171.5 1888 Q 1157.3 1881.3 1148 1869.5 L 1137 1853.5 L 1129 1833.5 L 1128 1829.5 L 1128 1794.5 Q 1134.7 1765.7 1152.5 1748 L 1162.5 1740 L 1177.5 1732 L 1183 1727.5 L 1192 1698.5 L 1197 1688.5 L 1200 1685.5 L 1200 1682.5 Q 1210.4 1665.9 1217 1645.5 L 1248 1584.5 L 1272 1546.5 L 1299 1510.5 L 1315 1483.5 L 1321.5 1477 Q 1326.3 1476.8 1328 1473.5 L 1329 1466.5 L 1324 1453.5 L 1324 1430.5 Q 1327.6 1424.1 1328 1414.5 L 1334 1399.5 Q 1341.6 1385.6 1353.5 1376 L 1363.5 1368 L 1390.5 1357 L 1395.5 1356 L 1421.5 1356 L 1430.5 1360 L 1436.5 1361 L 1458.5 1340 L 1478.5 1327 L 1488 1318.5 Q 1487.3 1316.3 1489.5 1317 L 1502.5 1305 L 1512.5 1300 L 1559.5 1267 L 1582.5 1255 L 1588.5 1250 L 1617.5 1233 L 1703.5 1192 L 1773.5 1165 L 1851.5 1144 L 1906.5 1133 L 1921.5 1132 L 1935.5 1129 L 1956.5 1128 L 1970.5 1125 L 2014.5 1124 L 2027.5 1121 L 2045.5 1121 L 2046.5 1120 Z " /><path fill="rgb(0,144,218)" stroke="rgb(0,144,218)" stroke-width="1" opacity="0.984313725490196" d="M 2021.5 1384 L 2118.5 1384 L 2119.5 1385 L 2136.5 1385 L 2153.5 1388 L 2176.5 1389 L 2182.5 1391 L 2204.5 1393 L 2214.5 1396 L 2220.5 1396 L 2236.5 1400 L 2246.5 1401 L 2250.5 1403 L 2289.5 1412 L 2299.5 1416 L 2306.5 1417 L 2309.5 1419 L 2332.5 1425 L 2345.5 1431 L 2354.5 1433 L 2371.5 1440 L 2435.5 1470 L 2494.5 1505 L 2533.5 1532 L 2568.5 1559 L 2586.5 1577 L 2597.5 1584 L 2668 1654.5 L 2678 1668.5 L 2704 1696.5 Q 2713.7 1707.3 2716 1725.5 L 2711 1738.5 L 2711 1741.5 Q 2708.2 1750.2 2701.5 1755 L 2682.5 1764 L 2668.5 1764 Q 2656.3 1760.2 2647.5 1753 L 2616 1721.5 L 2608 1709.5 L 2559.5 1661 L 2546.5 1652 L 2531.5 1637 Q 2514.7 1626.3 2501.5 1612 L 2481.5 1600 L 2462.5 1585 L 2405.5 1552 L 2373.5 1536 L 2324.5 1516 L 2321.5 1516 L 2313.5 1512 L 2277.5 1501 L 2210.5 1484 L 2197.5 1483 L 2186.5 1480 L 2167.5 1479 L 2153.5 1476 L 2124.5 1475 L 2109.5 1472 L 2064.5 1471 L 2063.5 1472 L 2033.5 1472 L 2029.5 1474 L 2013.5 1474 L 2012.5 1475 L 2001.5 1475 L 2000.5 1476 L 1987.5 1476 L 1982.5 1478 L 1968.5 1479 L 1967.5 1480 L 1957.5 1480 L 1939.5 1484 L 1932.5 1484 L 1923.5 1487 L 1912.5 1488 L 1904.5 1491 L 1895.5 1492 Q 1887.1 1496.1 1875.5 1497 L 1824.5 1513 L 1766.5 1536 L 1716.5 1561 L 1661.5 1595 Q 1631.3 1615.3 1604.5 1639 L 1600 1641 Q 1601.1 1643.7 1598.5 1643 L 1589.5 1652 L 1588 1652 L 1586.5 1655 L 1555 1681.5 Q 1555.8 1683.8 1553.5 1683 L 1551 1687 L 1547 1689.5 Q 1547.8 1691.8 1545.5 1691 L 1543 1695 L 1540 1696.5 L 1538.5 1699 L 1536 1700.5 L 1533.5 1704 Q 1531.3 1703.3 1532 1705.5 L 1528 1708 L 1526.5 1711 L 1523 1713.5 Q 1523.8 1715.8 1521.5 1715 L 1519 1719 L 1515 1721.5 Q 1515.8 1723.8 1513.5 1723 L 1511 1727 L 1508 1728.5 L 1490.5 1750 L 1478.5 1758 L 1468.5 1762 Q 1462.4 1765.4 1451.5 1764 L 1434.5 1755 L 1430 1750.5 L 1421 1733.5 Q 1418.4 1725.6 1420 1713.5 L 1426 1700.5 L 1452 1669 L 1456 1666.5 L 1457.5 1664 L 1460 1662.5 L 1480 1637 L 1483 1635.5 L 1485.5 1632 Q 1487.8 1632.8 1487 1630.5 L 1491 1628 L 1493.5 1624 Q 1495.8 1624.8 1495 1622.5 L 1500 1618.5 L 1501.5 1616 L 1504 1614.5 L 1505.5 1612 L 1508 1610.5 L 1509.5 1608 L 1512 1606.5 L 1513.5 1604 L 1516 1602.5 L 1517.5 1600 L 1520 1598.5 L 1521.5 1596 Q 1523.8 1596.8 1523 1594.5 L 1527 1592 L 1527 1590.5 L 1541.5 1576 L 1544 1574.5 Q 1543.3 1572.3 1545.5 1573 L 1601.5 1529 L 1606.5 1527 L 1659.5 1491 L 1733.5 1453 L 1771.5 1437 L 1821.5 1420 L 1842.5 1415 L 1845.5 1413 Q 1856.2 1412.2 1863.5 1408 L 1872.5 1407 L 1876.5 1405 L 1886.5 1404 L 1894.5 1401 L 1908.5 1399 L 1912.5 1397 L 1928.5 1395 L 1933.5 1393 L 1959.5 1391 L 1965.5 1389 L 1993.5 1388 L 2006.5 1385 L 2020.5 1385 L 2021.5 1384 Z " /><path fill="rgb(0,144,218)" stroke="rgb(0,144,218)" stroke-width="1" opacity="0.984313725490196" d="M 2024.5 1584 L 2126.5 1584 L 2127.5 1585 L 2138.5 1585 L 2139.5 1586 L 2160.5 1588 L 2200 1598 L 2200.5 1600 L 2202.5 1600 L 2209.5 1600 L 2229.5 1607 L 2237.5 1608 L 2248.5 1612 L 2252.5 1612 L 2300.5 1629 L 2367.5 1662 L 2382.5 1672 L 2386.5 1673 L 2394.5 1679 L 2425.5 1696 L 2450.5 1717 L 2470.5 1730 L 2483.5 1742 L 2507.5 1752 L 2513.5 1753 L 2517.5 1756 L 2530.5 1761 L 2581.5 1792 Q 2589.5 1802 2601.5 1808 L 2634 1840.5 L 2659 1873.5 L 2674 1896.5 L 2684 1917.5 L 2698 1940.5 L 2736 2016.5 L 2736 2023.5 L 2729 2032.5 L 2718 2055.5 L 2700 2082.5 Q 2692.1 2101.1 2680.5 2116 L 2678 2114.5 L 2656 2070.5 L 2650 2062.5 L 2641 2040.5 L 2608 1974.5 Q 2595.6 1958.9 2588 1938.5 L 2565 1906.5 L 2538.5 1880 L 2506.5 1857 L 2464.5 1836 L 2461.5 1836 L 2453.5 1832 L 2450.5 1832 L 2447.5 1830 L 2415.5 1820 L 2406.5 1819 L 2400.5 1816 L 2391.5 1815 L 2384.5 1812 L 2379.5 1812 L 2371.5 1809 L 2357.5 1807 L 2348.5 1804 L 2338.5 1803 L 2334.5 1801 L 2317.5 1799 L 2306.5 1796 L 2293.5 1795 L 2288.5 1793 L 2266.5 1791 L 2254.5 1788 L 2245.5 1788 L 2225.5 1784 L 2204.5 1783 L 2189.5 1780 L 2153.5 1779 L 2137.5 1776 L 2114.5 1776 L 2113.5 1775 L 2037.5 1775 L 2036.5 1776 L 2006.5 1776 L 1999.5 1779 L 1996.5 1778 L 1995.5 1779 L 1977.5 1779 L 1976.5 1780 L 1946.5 1780 L 1936.5 1783 L 1903.5 1784 L 1892.5 1787 L 1872.5 1788 L 1861.5 1791 L 1845.5 1792 L 1834.5 1795 L 1816.5 1797 L 1812.5 1799 L 1800.5 1800 L 1791.5 1803 L 1780.5 1804 L 1772.5 1807 L 1762.5 1808 L 1754.5 1811 L 1728.5 1816 L 1707.5 1823 L 1699.5 1824 L 1665.5 1836 L 1634.5 1852 L 1597.5 1879 L 1584 1892.5 L 1560 1922.5 L 1540 1954.5 L 1463 2109.5 L 1458.5 2116 L 1455 2113.5 L 1445 2098.5 L 1444 2094.5 L 1430 2074.5 L 1420 2054.5 L 1411 2041.5 L 1400 2020.5 L 1400 2015.5 L 1463 1895.5 L 1487 1859.5 L 1499 1846.5 L 1503 1839.5 L 1525.5 1816 L 1528 1814.5 Q 1527.3 1812.3 1529.5 1813 L 1555.5 1791 L 1579.5 1775 L 1622.5 1751 L 1649.5 1742 L 1659.5 1737 L 1707.5 1699 L 1731.5 1683 L 1756.5 1668 L 1822.5 1635 L 1849.5 1624 L 1852.5 1624 L 1885.5 1612 L 1892.5 1611 L 1895.5 1609 Q 1908.1 1607.6 1917.5 1603 L 1921.5 1603 L 1924.5 1601 L 1937.5 1600 L 1939.5 1598 L 1947.5 1596 L 1982.5 1589 L 1996.5 1588 L 2010.5 1585 L 2023.5 1585 L 2024.5 1584 Z " /><path fill="rgb(0,144,218)" stroke="rgb(0,144,218)" stroke-width="1" opacity="0.984313725490196" d="M 2128.5 1856 L 2157.5 1856 L 2161 1858.5 L 2151.5 1869 L 2102.5 1907 L 2017.5 1980 L 2000 1993 L 1997.5 1997 Q 1995.4 2000.9 1990 2000 L 1986.5 2005 L 1972 2016 L 1970.5 2019 L 1926.5 2058 L 1922.5 2060 L 1909.5 2060 L 1905.5 2063 L 1901.5 2063 L 1900 2060 Q 1892.5 2058.3 1890.5 2063 L 1829.5 2064 L 1825.5 2067 L 1810.5 2068 L 1805.5 2067 L 1804.5 2068 L 1781 2068 Q 1779.9 2065.3 1782.5 2066 L 1792 2057.5 Q 1793.4 2051.4 1798.5 2049 L 1801.5 2048 L 1809 2040.5 L 1811.5 2037 L 1832.5 2018 L 1834 2018 L 1835.5 2015 L 1868 1991 Q 1866.9 1988.3 1869.5 1989 Q 1877.3 1977.3 1890.5 1971 L 1909.5 1952 L 1940.5 1928 L 1970.5 1900 L 2000 1879 Q 1998.9 1876.3 2001.5 1877 L 2017.5 1864 L 2028.5 1860 L 2074.5 1860 L 2087.5 1857 L 2127.5 1857 L 2128.5 1856 Z " /><path fill="rgb(0,144,218)" stroke="rgb(0,144,218)" stroke-width="1" opacity="0.984313725490196" d="M 1870.5 1868 L 1895.5 1868 L 1897 1869.5 L 1892.5 1875 L 1748 1996 L 1745.5 2000 Q 1743.3 1999.3 1744 2001.5 L 1740 2004 L 1737.5 2008 Q 1705.1 2033.6 1676.5 2063 L 1666.5 2070 L 1661.5 2072 L 1622.5 2072 L 1616.5 2075 L 1614.5 2075 L 1590.5 2076 L 1586.5 2079 L 1578.5 2079 L 1577.5 2080 L 1558.5 2080 L 1552 2078.5 L 1572 2050.5 L 1605.5 2011 L 1617 2001.5 L 1619 1998.5 L 1621 1995.5 L 1622 1988.5 L 1624.5 1986 L 1638 1978 L 1651.5 1961 L 1668 1951 Q 1666.9 1948.3 1669.5 1949 L 1676 1941 L 1680 1938.5 L 1689.5 1926 L 1698.5 1920 L 1710.5 1908 L 1718.5 1903 L 1734.5 1889 L 1750.5 1888 L 1761.5 1885 L 1774.5 1884 L 1793.5 1880 L 1801.5 1880 L 1817.5 1876 L 1823.5 1876 L 1842.5 1872 L 1858.5 1871 L 1870.5 1868 Z " /><path fill="rgb(0,144,218)" stroke="rgb(0,144,218)" stroke-width="1" opacity="0.984313725490196" d="M 1145.5 2004 L 1293.5 2004 Q 1295.3 2006.8 1301.5 2005 L 1310.5 2009 L 1322 2019.5 Q 1330.3 2027.7 1335 2039.5 L 1349 2081.5 L 1349 2084.5 L 1351 2087.5 L 1352 2095 L 1341.5 2092 L 1207.5 2092 L 1206 2094.5 L 1208 2098.5 L 1220.5 2111 L 1240.5 2124 L 1264.5 2135 L 1270.5 2136 L 1275.5 2139 L 1278.5 2139 L 1304.5 2148 L 1308.5 2148 L 1316.5 2151 L 1324.5 2152 L 1332.5 2155 Q 1344.2 2155.8 1352.5 2160 L 1361.5 2161 L 1368.5 2164 L 1372.5 2164 L 1379.5 2167 L 1386.5 2168 L 1412.5 2177 L 1453.5 2196 L 1458.5 2200 L 1462.5 2201 L 1481.5 2212 L 1486.5 2217 L 1509.5 2233 Q 1520.8 2245.2 1535.5 2254 L 1565 2283.5 L 1595 2321.5 L 1612 2346.5 L 1631 2378.5 L 1652 2420.5 L 1656 2432.5 L 1668 2458.5 L 1673 2475.5 L 1676 2491.5 L 1676 2517.5 L 1666 2538.5 L 1639.5 2567 L 1612.5 2583 L 1590.5 2591 L 1577.5 2592 L 1568.5 2595 L 1560.5 2595 L 1559.5 2596 L 1540.5 2596 L 1539.5 2595 L 1530.5 2595 L 1518.5 2592 L 1512.5 2592 L 1499.5 2588 L 1494.5 2588 L 1457.5 2576 Q 1430.2 2564.8 1407.5 2549 L 1395.5 2544 Q 1384.8 2533.9 1371 2528 L 1372 2540.5 L 1375 2548.5 L 1376 2560.5 Q 1379.6 2566.9 1380 2576.5 L 1383 2582.5 L 1385 2593.5 L 1387 2596.5 L 1392 2620.5 L 1413 2679.5 L 1417.5 2688 Q 1425 2690.5 1436.5 2689 L 1439.5 2688 L 1444.5 2689 L 1445.5 2688 L 1588 2688 Q 1589.5 2691.7 1586.5 2691 L 1578.5 2696 Q 1556.1 2717.1 1530.5 2735 L 1516.5 2748 L 1475.5 2778 L 1437.5 2795 L 1432.5 2796 L 1416.5 2796 L 1402.5 2792 L 1393.5 2791 L 1381.5 2786 L 1360 2767.5 L 1341 2741.5 L 1317 2688.5 L 1303 2644.5 L 1301 2641.5 L 1299 2631.5 L 1297 2628.5 L 1296 2620.5 L 1293 2613.5 L 1292 2604.5 L 1289 2597.5 Q 1288.8 2587.2 1285 2580.5 L 1284 2564.5 L 1281 2557.5 L 1280 2544.5 L 1277 2536.5 L 1276 2510.5 L 1273 2505.5 L 1272 2457.5 L 1269 2453.5 L 1269 2433.5 L 1268 2432.5 L 1268 2390.5 L 1265 2384.5 L 1264 2358.5 L 1261 2353.5 L 1261 2238.5 L 1257.5 2234 L 1247.5 2229 L 1239.5 2228 L 1213.5 2219 L 1180.5 2202 L 1154.5 2184 L 1136 2165.5 L 1117 2138.5 L 1105 2109.5 L 1104 2096.5 L 1100 2083.5 L 1100 2058.5 Q 1103.6 2052.1 1104 2042.5 L 1110 2028.5 L 1116 2019.5 L 1123.5 2012 L 1138.5 2005 Q 1144 2006.5 1145.5 2004 Z M 1357 2261 Q 1355 2265 1356 2274 L 1355 2275 L 1356 2333 L 1359 2340 L 1359 2352 L 1360 2353 L 1361 2365 L 1363 2369 L 1365 2380 L 1372 2397 Q 1378 2410 1388 2420 L 1411 2440 L 1437 2453 L 1464 2463 L 1471 2464 L 1482 2468 L 1491 2469 L 1495 2471 L 1513 2473 L 1523 2476 L 1553 2477 L 1560 2480 L 1573 2480 L 1572 2474 L 1564 2462 L 1559 2449 L 1536 2403 L 1512 2367 Q 1501 2356 1493 2343 L 1483 2332 Q 1466 2322 1454 2308 L 1419 2285 L 1380 2265 L 1372 2264 L 1364 2261 L 1357 2261 Z " /><path fill="rgb(0,144,218)" stroke="rgb(0,144,218)" stroke-width="1" opacity="0.984313725490196" d="M 2839.5 2004 L 2994.5 2004 Q 2996 2006.5 3001.5 2005 L 3009.5 2009 L 3024 2022.5 L 3030 2032.5 L 3035 2047.5 L 3035 2055.5 L 3036 2056.5 L 3036 2094.5 L 3031 2113.5 L 3028 2118.5 L 3027 2125.5 Q 3023.5 2129 3023 2135.5 Q 3010.4 2157.9 2993.5 2176 L 2975.5 2191 L 2939.5 2213 L 2917.5 2223 L 2910.5 2224 L 2907.5 2226 L 2881.5 2234 L 2875 2238.5 L 2875 2315.5 L 2876 2316.5 L 2876 2343.5 L 2875 2344.5 L 2875 2362.5 L 2872 2371.5 L 2870 2390.5 L 2868 2394.5 L 2868 2409.5 L 2867 2414.5 L 2868 2415.5 L 2868 2423.5 L 2867 2424.5 L 2867 2443.5 L 2864 2449.5 L 2864 2488.5 L 2863 2489.5 L 2863 2503.5 L 2860 2511.5 L 2859 2531.5 L 2856 2539.5 L 2855 2558.5 L 2852 2567.5 L 2851 2578.5 L 2847 2591.5 L 2847 2596.5 L 2844 2603.5 L 2843 2611.5 L 2839 2623.5 L 2839 2627.5 L 2837 2630.5 L 2835 2640.5 L 2811 2709.5 L 2790 2751.5 Q 2780 2768 2765.5 2780 Q 2757.5 2788 2745.5 2792 L 2741.5 2792 L 2729.5 2796 L 2712.5 2796 L 2690.5 2791 L 2683.5 2788 L 2664.5 2778 L 2657.5 2772 L 2628.5 2754 L 2593.5 2727 L 2560.5 2694 L 2552 2688.5 L 2718.5 2688 L 2720 2686.5 L 2729 2661.5 L 2732 2656.5 L 2732 2653.5 L 2744 2620.5 L 2752 2589.5 L 2756 2579.5 L 2757 2570.5 L 2760 2562.5 L 2760 2546.5 L 2765 2530.5 L 2764 2528 L 2760.5 2529 L 2754.5 2535 L 2730.5 2550 L 2688.5 2572 L 2661.5 2583 L 2614.5 2595 Q 2608.3 2593.2 2606.5 2596 L 2579.5 2596 L 2578.5 2595 L 2570.5 2595 L 2555.5 2592 L 2544.5 2588 L 2537.5 2587 L 2534.5 2585 L 2523.5 2583 Q 2507.1 2576.4 2496 2564.5 L 2492.5 2560 Q 2480.3 2552.7 2472 2541.5 Q 2464 2531.5 2460 2517.5 L 2460 2491.5 L 2468 2461.5 L 2481 2429.5 L 2487 2418.5 L 2488 2413.5 L 2500 2389.5 L 2519 2355.5 L 2543 2319.5 L 2564 2293 L 2567 2291.5 Q 2574.5 2285 2579 2275.5 L 2592.5 2262 Q 2602.1 2258.1 2608 2250.5 L 2609.5 2248 L 2612 2246.5 L 2613.5 2244 L 2616 2242.5 L 2617.5 2240 L 2620 2238.5 Q 2619.3 2236.3 2621.5 2237 L 2627.5 2231 L 2666.5 2205 L 2705.5 2185 L 2737.5 2172 L 2740.5 2172 L 2759.5 2165 L 2838.5 2147 L 2878.5 2135 L 2917.5 2112 L 2931 2099.5 L 2933 2092 L 2800.5 2092 L 2799.5 2091 L 2784 2091 L 2784 2087.5 L 2788 2080.5 L 2788 2077.5 L 2797 2052.5 L 2800 2049.5 L 2800 2045.5 L 2804 2035.5 Q 2810.2 2022.2 2820.5 2013 Q 2827.6 2006.1 2839.5 2004 Z M 2770 2260 L 2752 2267 L 2717 2285 Q 2691 2301 2670 2320 Q 2667 2319 2668 2322 L 2666 2323 L 2643 2347 L 2640 2348 L 2619 2376 L 2599 2408 L 2584 2439 L 2575 2462 L 2567 2477 L 2567 2480 L 2571 2481 Q 2575 2482 2577 2480 L 2596 2480 L 2606 2477 L 2629 2475 L 2633 2473 L 2643 2472 L 2656 2468 L 2660 2468 L 2698 2455 L 2730 2436 L 2735 2431 L 2738 2429 L 2759 2407 L 2771 2383 L 2776 2364 L 2777 2352 L 2780 2346 L 2780 2323 L 2781 2322 L 2781 2283 L 2780 2282 L 2780 2266 L 2779 2263 Q 2777 2258 2770 2260 Z " /><path fill="rgb(0,144,218)" stroke="rgb(0,144,218)" stroke-width="1" opacity="0.984313725490196" d="M 1995.5 2140 L 2127.5 2140 L 2128.5 2141 L 2150.5 2141 L 2158.5 2144 L 2174.5 2144 Q 2180.3 2139.8 2191.5 2141 L 2198.5 2144 L 2266.5 2144 L 2267.5 2145 L 2289.5 2145 L 2294.5 2147 L 2302.5 2147 L 2303.5 2148 L 2355.5 2149 L 2366.5 2152 L 2390.5 2152 L 2391.5 2153 L 2409.5 2153 L 2422.5 2156 L 2464.5 2157 L 2479.5 2160 L 2512.5 2161 L 2520.5 2164 L 2544.5 2164 L 2545.5 2165 L 2556.5 2165 L 2562.5 2168 L 2584.5 2168 L 2589 2169 L 2584.5 2175 L 2572 2184 Q 2573.1 2186.7 2570.5 2186 L 2544 2208 L 2542.5 2211 L 2540 2212.5 L 2538.5 2215 L 2498 2252.5 L 2455 2306.5 L 2425 2348.5 L 2368 2434.5 L 2360 2449.5 L 2348 2466.5 L 2300 2545.5 L 2286.5 2563 L 2281.5 2564 L 2262.5 2564 L 2261.5 2563 L 2239.5 2563 L 2235.5 2564 L 2234.5 2563 L 2185.5 2563 L 2184.5 2562 L 2170.5 2562 L 2161.5 2560 L 2139.5 2560 L 2138.5 2559 L 2046.5 2559 L 2045.5 2560 L 2017.5 2560 L 2014.5 2562 L 1988.5 2562 L 1987.5 2563 L 1855.5 2564 L 1849 2561.5 L 1847 2556.5 L 1841 2550.5 L 1830 2534.5 L 1824 2522.5 L 1817 2513.5 L 1796 2478.5 L 1778 2456.5 L 1768 2434.5 L 1733 2381.5 L 1728 2370.5 L 1705 2341.5 L 1685 2310.5 L 1672 2297.5 L 1665 2286.5 L 1654 2275.5 L 1654 2274 Q 1651.3 2275.1 1652 2272.5 L 1649 2269.5 L 1648 2262.5 L 1645 2258.5 L 1605.5 2219 L 1597 2212.5 L 1585.5 2200 L 1576.5 2194 Q 1566.2 2181.3 1552 2172.5 L 1551 2170.5 L 1556.5 2168 L 1562.5 2168 L 1578.5 2164 L 1611.5 2164 L 1621.5 2161 L 1661.5 2160 L 1673.5 2157 L 1713.5 2156 L 1726.5 2153 L 1778.5 2152 L 1789.5 2149 L 1811.5 2149 L 1812.5 2148 L 1851.5 2148 L 1865.5 2145 L 1881.5 2145 L 1882.5 2144 L 1920.5 2144 L 1921.5 2145 L 1943.5 2145 L 1944.5 2144 L 1966.5 2144 L 1977.5 2141 L 1994.5 2141 L 1995.5 2140 Z " /><path fill="rgb(0,144,218)" stroke="rgb(0,144,218)" stroke-width="1" opacity="0.984313725490196" d="M 2016.5 2656 L 2017.5 2657 L 2049.5 2657 L 2050.5 2656 L 2081.5 2656 L 2084.5 2657 L 2085.5 2656 L 2106.5 2656 L 2111.5 2657 Q 2112.7 2654.7 2117.5 2656 L 2118.5 2657 L 2174.5 2657 L 2175.5 2658 L 2185.5 2658 L 2195.5 2660 L 2267.5 2660 L 2268.5 2661 L 2289.5 2661 L 2290.5 2662 L 2306.5 2663 L 2307.5 2664 L 2365.5 2665 L 2379.5 2668 L 2399.5 2668 L 2400.5 2669 L 2412.5 2669 L 2419.5 2671 L 2444.5 2673 L 2445.5 2674 L 2474.5 2678 L 2485.5 2681 L 2490.5 2681 L 2518 2687 Q 2516.7 2690.7 2522.5 2689 L 2526.5 2690 L 2532 2689 Q 2531.7 2695.1 2527.5 2698 Q 2524.1 2697.1 2526 2702.5 Q 2523.4 2703.9 2524 2708.5 L 2525.5 2711 Q 2523.3 2710.3 2524 2712.5 L 2521 2717 L 2518 2718.5 L 2518 2722.5 L 2506.5 2734 Q 2501.1 2732.1 2502 2735.5 L 2497 2739.5 L 2491.5 2750 L 2489.5 2751 L 2452.5 2751 L 2444.5 2748 L 2419.5 2748 L 2418.5 2747 L 2402.5 2747 L 2389.5 2744 L 2349.5 2744 L 2348.5 2743 L 1821.5 2743 L 1820.5 2744 L 1773.5 2744 L 1767.5 2747 L 1706.5 2748 L 1702.5 2751 L 1694.5 2751 L 1693.5 2752 L 1668.5 2752 L 1654 2749 L 1652.5 2746 L 1647.5 2747 L 1642 2743.5 L 1640 2740.5 L 1635 2736.5 L 1632.5 2733 Q 1630.3 2733.8 1631 2731.5 Q 1629.8 2728.3 1626 2729 Q 1627.8 2724.1 1621.5 2726 L 1610 2714.5 L 1610 2706 Q 1605.9 2707.7 1607 2703.5 L 1602 2699.5 L 1602 2691.5 L 1603.5 2690 L 1610 2690 Q 1608.3 2685.9 1612.5 2687 L 1632.5 2682 L 1650.5 2680 L 1670.5 2676 L 1681.5 2676 L 1688.5 2674 L 1705.5 2673 L 1706.5 2672 L 1721.5 2672 L 1722.5 2671 L 1736.5 2670 L 1737.5 2669 L 1747.5 2669 L 1748.5 2668 L 1761.5 2668 L 1775.5 2665 L 1830.5 2664 L 1837.5 2662 L 1857.5 2661 L 1858.5 2660 L 1913.5 2660 L 1914.5 2661 L 1956.5 2661 L 1957.5 2660 L 1974.5 2660 L 1989.5 2657 L 2015.5 2657 L 2016.5 2656 Z " /><path fill="rgb(0,144,218)" stroke="rgb(0,144,218)" stroke-width="1" opacity="0.984313725490196" d="M 2528 2712 L 2531 2713.5 Q 2531.8 2715.8 2529.5 2715 L 2528 2712 Z " /><path fill="rgb(0,144,218)" stroke="rgb(0,144,218)" stroke-width="1" opacity="0.984313725490196" d="M 1677.5 2755 L 1681.5 2755 L 1731.5 2780 L 1812.5 2811 L 1818.5 2812 L 1852.5 2824 L 1856.5 2824 L 1885.5 2832 L 1894.5 2833 L 1898.5 2835 L 1912.5 2837 L 1916.5 2839 L 1931.5 2841 L 1942.5 2844 L 1957.5 2845 L 1970.5 2848 L 1995.5 2849 L 2008.5 2852 L 2117.5 2853 L 2118.5 2852 L 2139.5 2852 L 2153.5 2849 L 2174.5 2848 L 2186.5 2845 L 2201.5 2844 L 2212.5 2841 L 2228.5 2839 L 2237.5 2836 L 2247.5 2835 L 2255.5 2832 L 2260.5 2832 Q 2269.7 2827.7 2282.5 2827 L 2289.5 2824 L 2293.5 2824 L 2303.5 2820 L 2307.5 2820 L 2313.5 2817 L 2323.5 2815 L 2347.5 2805 L 2361.5 2800 L 2365.5 2800 L 2370.5 2797 L 2398.5 2787 L 2453.5 2760 L 2458.5 2756 L 2464.5 2755 L 2498.5 2768 L 2524.5 2781 L 2536.5 2785 L 2549.5 2794 L 2555 2796 L 2553.5 2799 L 2549.5 2800 L 2545.5 2804 L 2516.5 2823 L 2445.5 2859 L 2415.5 2872 L 2349.5 2896 L 2318.5 2904 L 2298.5 2911 L 2289.5 2912 L 2276.5 2916 L 2271.5 2916 L 2242.5 2923 L 2229.5 2924 L 2210.5 2928 L 2201.5 2928 L 2190.5 2931 L 2173.5 2932 L 2160.5 2935 L 2114.5 2936 L 2107.5 2939 L 2105.5 2939 L 2039.5 2939 L 2038.5 2938 L 2029.5 2938 L 2020.5 2936 L 1984.5 2935 L 1969.5 2932 L 1953.5 2931 L 1942.5 2928 L 1928.5 2927 L 1919.5 2924 L 1913.5 2924 Q 1905.2 2920.3 1893.5 2920 L 1880.5 2916 L 1875.5 2916 L 1862.5 2912 L 1857.5 2912 L 1844.5 2908 L 1840.5 2908 L 1774.5 2888 L 1693.5 2856 L 1651.5 2836 L 1617.5 2816 L 1613.5 2815 L 1591.5 2801 L 1584 2799 L 1586.5 2795 L 1603.5 2785 L 1630.5 2775 L 1653.5 2764 L 1668.5 2760 L 1677.5 2755 Z " /></svg>